<svg id="JNL_Logo" data-name="JNL Logo" xmlns="http://www.w3.org/2000/svg" xmlns:xlink="http://www.w3.org/1999/xlink" viewBox="0 0 642.77 216"><defs><style>.cls-1{fill:#c4e281;}.cls-2{fill:#383838;}.cls-3,.cls-4{font-size:96.89px;}.cls-17,.cls-20,.cls-3{stroke:#84c149;stroke-miterlimit:10;stroke-width:3px;}.cls-17,.cls-19,.cls-20,.cls-22,.cls-3,.cls-4{font-family:FranklinGothic-Demi, Franklin Gothic Demi;font-weight:300;}.cls-12,.cls-13,.cls-19,.cls-22,.cls-4,.cls-5{fill:none;}.cls-19,.cls-22,.cls-4,.cls-5{stroke:#231f20;}.cls-4,.cls-5{stroke-width:0.5px;}.cls-10,.cls-12,.cls-6,.cls-7,.cls-8,.cls-9{stroke:#000;}.cls-10,.cls-12,.cls-6,.cls-8,.cls-9{stroke-width:2px;}.cls-10,.cls-7{fill:#ead93f;}.cls-7{stroke-width:4px;}.cls-8{fill:#5b92e8;}.cls-9{fill:#8acc52;}.cls-11{fill:#f93232;}.cls-13{stroke:#f93232;stroke-width:0.25px;}.cls-14{fill:url(#linear-gradient);}.cls-15{fill:url(#linear-gradient-2);}.cls-16{fill:url(#linear-gradient-3);}.cls-17,.cls-19{font-size:79.96px;}.cls-18{letter-spacing:0.01em;}.cls-20,.cls-22{font-size:53.31px;}.cls-21{letter-spacing:0.02em;}.cls-23{font-size:28px;font-family:ForteMT, Forte;}.cls-24{letter-spacing:0.02em;}.cls-25{letter-spacing:-0.02em;}.cls-26{letter-spacing:-0.02em;}.cls-27{letter-spacing:-0.1em;}.cls-28{letter-spacing:-0.04em;}.cls-29{letter-spacing:-0.13em;}</style><linearGradient id="linear-gradient" x1="44.92" y1="99.82" x2="62.9" y2="99.82" gradientTransform="translate(204.29 19.32) rotate(90)" gradientUnits="userSpaceOnUse"><stop offset="0" stop-color="red" stop-opacity="0.5"/><stop offset="1" stop-color="red"/></linearGradient><linearGradient id="linear-gradient-2" x1="74.46" y1="70.28" x2="92.45" y2="70.28" gradientTransform="translate(216.53 -10.23) rotate(90)" gradientUnits="userSpaceOnUse"><stop offset="0" stop-color="#8cc63f" stop-opacity="0.5"/><stop offset="1" stop-color="#8cc63f"/></linearGradient><linearGradient id="linear-gradient-3" x1="16.79" y1="130.01" x2="34.77" y2="130.01" gradientTransform="translate(193.24 48.9) rotate(90)" xlink:href="#linear-gradient-2"/></defs><title>JackNJillCleaningServicesLogo&amp;amp;Name</title><g id="bg"><circle class="cls-1" cx="108" cy="108" r="104"/><path d="M108,8A100,100,0,1,1,8,108,100.11,100.11,0,0,1,108,8m0-8A108,108,0,1,0,216,108,108,108,0,0,0,108,0Z"/></g><g id="_bevel_" data-name="&quot;bevel&quot;"><path class="cls-2" d="M117.93,208.79A99,99,0,0,1,43.65,187,101.07,101.07,0,0,1,19,157.24,102.91,102.91,0,0,1,9.36,83.12a100.46,100.46,0,0,1,44-60.55A101,101,0,0,1,128.59,9.46a101.33,101.33,0,0,1,64.08,45.06,102.28,102.28,0,0,1,12.69,78.92,98.53,98.53,0,0,1-17.94,36.86,99.56,99.56,0,0,1-14.25,14.77,103,103,0,0,1-16.86,11.53A105.33,105.33,0,0,1,117.93,208.79Zm-1.81-12.7a89,89,0,0,0,16.9-4.72,87.14,87.14,0,0,0,15.5-7.94,91.92,91.92,0,0,0,24.74-23.76,95,95,0,0,0,14.55-30.74,90.07,90.07,0,0,0,2.44-34,95.34,95.34,0,0,0-3.65-16.85,88.33,88.33,0,0,0-6.84-15.91,91,91,0,0,0-89.34-46.6,93,93,0,0,0-34.71,11A92.07,92.07,0,0,0,17.92,66.21a93.09,93.09,0,0,0-6.54,17.43,91,91,0,0,0-2.9,18.41,92.06,92.06,0,0,0,.95,18.62,89.84,89.84,0,0,0,13,34.53A90.93,90.93,0,0,0,47.9,181.31a92.94,92.94,0,0,0,68.22,14.78Z"/><path d="M117.35,204.68a98,98,0,0,1-72.57-19.21,98.87,98.87,0,0,1-38-64.42A97.92,97.92,0,0,1,8.68,82.94,98.58,98.58,0,0,1,128.09,11.4,97.81,97.81,0,0,1,163,28,98.19,98.19,0,0,1,201.9,93.27,97.92,97.92,0,0,1,199.68,132a98.68,98.68,0,0,1-82.33,72.7Zm-.64-4.49a93.54,93.54,0,0,0,76.78-69.8,97.08,97.08,0,0,0,2.7-18,93.73,93.73,0,0,0-.82-18.18A95.11,95.11,0,0,0,183.44,60a93.41,93.41,0,0,0-24.1-27.11A94.93,94.93,0,0,0,126.67,17,93.91,93.91,0,0,0,14.21,138.64,94.77,94.77,0,0,0,22,155.45a93,93,0,0,0,24.73,27.37,94,94,0,0,0,69.94,17.37Z"/></g><g id="text"><text class="cls-3" transform="translate(36.15 162.77)">JN</text><text class="cls-3" transform="matrix(-1, 0, 0, 1, 172.78, 162.77)">J</text><text class="cls-4" transform="translate(36.15 162.77)">JN</text><text class="cls-4" transform="translate(36.15 162.77)">JN</text><path class="cls-5" d="M67.23,98.19v46.08q0,9.84-4.71,14.66T47,163.76a57.84,57.84,0,0,1-10.22-1V150.23a48.12,48.12,0,0,0,7.71.76A8.36,8.36,0,0,0,49,150a6.42,6.42,0,0,0,2.39-2.48,12.06,12.06,0,0,0,.76-5.11V98.19H67.23m1-1H51.14v45.19c0,2.81-.35,4.08-.65,4.65a5.43,5.43,0,0,1-2,2.09,7.49,7.49,0,0,1-3.95.87,45.91,45.91,0,0,1-7.54-.75l-1.17-.19V163.6l.82.15a58.86,58.86,0,0,0,10.4,1c7.44,0,12.89-1.73,16.21-5.13s5-8.56,5-15.36V97.19Z"/><path class="cls-5" d="M129.21,98.19v64.58H116.3L91,119.15c0,1.1.06,1.83.09,2.17a24.56,24.56,0,0,1,.19,2.8v38.65H79.53V98.19H95.84l22,38.08c-.18-1.89-.28-3.32-.28-4.3V98.19h11.69m1-1H116.52v34.86L96.7,97.69l-.29-.5H78.53v66.58H92.31V124.12c0-.25,0-.52,0-.79l23.15,39.94.28.5h14.49V97.19Z"/><text class="cls-4" transform="matrix(-1, 0, 0, 1, 172.78, 162.77)">J</text><text class="cls-4" transform="matrix(-1, 0, 0, 1, 172.78, 162.77)">J</text><path class="cls-5" d="M156.79,98.19v44.19a12.22,12.22,0,0,0,.76,5.11,6.42,6.42,0,0,0,2.39,2.48,8.41,8.41,0,0,0,4.47,1,48,48,0,0,0,7.71-.76v12.54a57.75,57.75,0,0,1-10.22,1q-10.78,0-15.49-4.83t-4.71-14.66V98.19h15.09m1-1H140.7v47.08c0,6.8,1.68,12,5,15.36s8.78,5.13,16.21,5.13a58.86,58.86,0,0,0,10.4-1l.82-.15V149.05l-1.17.19a45.91,45.91,0,0,1-7.54.75,7.43,7.43,0,0,1-3.94-.87,5.46,5.46,0,0,1-2-2.09c-.3-.57-.65-1.84-.65-4.65V97.19Z"/></g><g id="crown"><g id="shadow"><path class="cls-6" d="M155.19,54.56,132.81,77,115,59.11a6.44,6.44,0,1,0-2.74.09L94.06,77.35,72.6,55.89a3.09,3.09,0,1,0-.79,0L57.74,70,44.88,57.11V100l134-1.34V55.94l-12.4,9.88Z"/><path class="cls-6" d="M46,52.87A3.07,3.07,0,1,0,43,55.94,3.07,3.07,0,0,0,46,52.87Z"/><circle class="cls-6" cx="178.85" cy="52.87" r="3.06"/><path class="cls-6" d="M155.17,54.45a3.07,3.07,0,1,0-3.07-3.07A3.06,3.06,0,0,0,155.17,54.45Z"/></g><polygon class="cls-7" points="35.97 94.71 35.97 51.81 48.83 64.67 63.3 50.2 85.15 72.05 104.72 52.48 123.89 71.65 146.28 49.26 157.54 60.52 169.94 50.64 169.94 93.37 35.97 94.71"/><circle class="cls-8" cx="34.04" cy="47.57" r="3.06"/><circle class="cls-8" cx="169.94" cy="47.57" r="3.06"/><circle class="cls-9" cx="63.23" cy="47.57" r="3.06"/><circle class="cls-10" cx="104.47" cy="47.57" r="6.44"/><circle class="cls-9" cx="146.25" cy="46.09" r="3.06"/><circle class="cls-11" cx="104.47" cy="47.57" r="3.06"/><circle class="cls-12" cx="104.47" cy="47.57" r="3.06"/><circle class="cls-13" cx="104.47" cy="47.57" r="3.06"/><rect class="cls-14" x="95.48" y="64.23" width="17.98" height="17.98" transform="translate(-21.18 95.32) rotate(-45)"/><path d="M104.47,63.34l9.88,9.88-9.88,9.89-9.89-9.89,9.89-9.88m0-5.66L88.92,73.22l15.55,15.55L120,73.22,104.47,57.68Z"/><rect class="cls-15" x="137.26" y="64.23" width="17.98" height="17.98" transform="translate(-8.94 124.86) rotate(-45)"/><path d="M146.25,63.34l9.89,9.88-9.89,9.89-9.88-9.89,9.88-9.88m0-5.66L130.71,73.22l15.54,15.55L161.8,73.22,146.25,57.68Z"/><rect class="cls-16" x="54.24" y="65.69" width="17.98" height="17.98" transform="translate(-34.29 66.59) rotate(-45)"/><path d="M63.23,64.79l9.89,9.89-9.89,9.89-9.88-9.89,9.88-9.89m0-5.66L47.69,74.68,63.23,90.22,78.78,74.68,63.23,59.13Z"/></g><text class="cls-17" transform="translate(231.48 88.02)">Ja<tspan class="cls-18" x="73.75" y="0">c</tspan><tspan x="115.22" y="0">k N’ Jill</tspan></text><text class="cls-19" transform="translate(231.48 88.02)">Ja<tspan class="cls-18" x="73.75" y="0">c</tspan><tspan x="115.22" y="0">k N’ Jill</tspan></text><text class="cls-20" transform="translate(247.81 134.98)">Cleaning Se<tspan class="cls-21" x="279.86" y="0">r</tspan><tspan x="299.49" y="0">vice</tspan></text><text class="cls-22" transform="translate(247.81 134.98)">Cleaning Se<tspan class="cls-21" x="279.86" y="0">r</tspan><tspan x="299.49" y="0">vice</tspan></text><text class="cls-23" transform="translate(231.48 170.96)">“cle<tspan class="cls-24" x="44.87" y="0">a</tspan><tspan x="60.88" y="0">ning f</tspan><tspan class="cls-25" x="129.54" y="0">o</tspan><tspan x="144.29" y="0">r a price</tspan><tspan x="0" y="33.6" xml:space="preserve">     that </tspan><tspan class="cls-26" x="93.35" y="33.6">d</tspan><tspan x="108.84" y="33.6">oesn</tspan><tspan class="cls-27" x="162.79" y="33.6">’</tspan><tspan x="165.81" y="33.6">t break</tspan><tspan class="cls-27" x="246.5" y="33.6"> </tspan><tspan class="cls-28" x="251.14" y="33.6">Y</tspan><tspan x="269.28" y="33.6">OUR crown</tspan><tspan class="cls-29" x="397.74" y="33.6">”</tspan></text></svg>