<svg xmlns="http://www.w3.org/2000/svg" viewBox="0 0 100 100"><defs><style>.cls-1{fill:#b8241c;}.cls-2{fill:#fae805;}</style></defs><title>Asset 1</title><g id="Layer_2" data-name="Layer 2"><g id="Layer_1-2" data-name="Layer 1"><rect class="cls-1" width="100" height="100"/><path class="cls-2" d="M32.14,44.79a21.66,21.66,0,0,1,4.38-1.56l.19,0Q35.22,47.33,34.19,51A30.75,30.75,0,0,0,33,58.55l-5,2.41c-.18-2-.48-5-.92-7.26-.06-.31-.13-.6-.19-.87a45.37,45.37,0,0,0-.69,7.34l-4.94,2.26a50.82,50.82,0,0,0-.74-5.56,23,23,0,0,0-.81-3q-1.07-3-2.1-5.46A13.17,13.17,0,0,1,22,46.16c.16,0,.36.61.6,1.82.08.43.17.93.27,1.51.36,2.21.68,4.66.94,7.34.33-2.63.34-6.94.42-9.89a2.9,2.9,0,0,0,.38-.2,11.32,11.32,0,0,1,3.82-2c.19,0,.5,1,.94,2.87.08.38.17.77.25,1.17.31,1.6.57,3.34.78,5.21A68,68,0,0,1,32.14,44.79Z"/><path class="cls-2" d="M47,50.78c.11,1.65.17,3.41.33,4.95L43,57.53c-.11-1.5-.13-3.32-.08-5.47-.78.33-1.56.62-2.32,1,0,1.66,0,3.08.09,4.27L36.4,58.93a87.3,87.3,0,0,1,1.23-14.87,8.2,8.2,0,0,1,3.23-1.37c-.17,2.19-.24,4.79-.28,7.12A17.69,17.69,0,0,1,43,48.4a50.1,50.1,0,0,1,.62-5.75,7.23,7.23,0,0,1,3.21-1.46c-.1,1.65-.11,3.57,0,5.76a7.21,7.21,0,0,0,1-.31l-.29,4Z"/><path class="cls-2" d="M59.83,53.25a11.93,11.93,0,0,1-4.1,2.21c-.16,0-.38-.67-.63-2q-.12-.57-.24-1.32c-.65.29-1.15.5-1.5.64l-.08,0c-.19,0-.34-.17-.43-.62,0,0,0,0,0-.06a25.84,25.84,0,0,1-.75,3.21A21.72,21.72,0,0,1,47.72,57c.89-2.81,1.62-5.46,2.18-8a37.79,37.79,0,0,0,.88-7.83l3-1.33,2.3-1.18a54.52,54.52,0,0,0,.78,5.49,37.63,37.63,0,0,0,1,4c.55-.16,1-.31,1.5-.49L59,50.91l-.12,0C59.2,51.77,59.48,52.5,59.83,53.25Zm-5.41-3.6q-.48-3-.83-6.7c-.11,2.5-.2,5.11-.51,7.45A14.61,14.61,0,0,1,54.42,49.65Z"/><path class="cls-2" d="M60.64,43.88a2.22,2.22,0,0,1,.43-1.19l-1.37.61c0-.16-.08-.32-.11-.48a7.9,7.9,0,0,1,.1-3.08A27.75,27.75,0,0,1,66.27,37l.3-.06a4.62,4.62,0,0,1,4.13,2,4.74,4.74,0,0,1,.54,1.44,7.22,7.22,0,0,1-.63,4.32,7.14,7.14,0,0,1-5.43,3.79c-.29.06-.59.11-.91.15.1,1.34.24,2.56.34,3.87l-4.35,1.68A82,82,0,0,1,60.64,43.88Zm5.71,1.72a2,2,0,0,0,1-2c0-.09,0-.18-.05-.27-.32-1.61-1.47-2-3-1.76a38.57,38.57,0,0,0-.1,5.17A18,18,0,0,0,66.35,45.6Z"/><path class="cls-2" d="M16.81,65.18H83.43v-13Zm60.31-1.41c-2.23.41-4.29-.44-4.69-2.61a4.46,4.46,0,0,1-.07-.84c0-2.59,2.34-4.73,5.15-5.25,2.18-.41,4.3.4,4.69,2.51a3.35,3.35,0,0,1,.06.91C82.16,60.87,79.81,63.27,77.12,63.77Z"/><path class="cls-2" d="M73.49,36.45a24,24,0,0,1,4.74-1.51c1.63-.34,2.86-.6,3.69-.8a111.74,111.74,0,0,0-.43,16.32L72.4,52.18C72.33,47.68,72.63,40.24,73.49,36.45Z"/></g></g></svg>