<?xml version="1.0" encoding="utf-8"?>
<!-- Generator: Adobe Illustrator 23.0.6, SVG Export Plug-In . SVG Version: 6.00 Build 0)  -->
<svg version="1.1" id="logo" xmlns="http://www.w3.org/2000/svg" xmlns:xlink="http://www.w3.org/1999/xlink" x="0px" y="0px"
	 viewBox="0 0 300 300" style="enable-background:new 0 0 300 300;" xml:space="preserve">
<style type="text/css">
	.st0{fill:#FFD300;}
</style>
<g id="Text_a">
	<g>
		<g>
			<path class="st0" d="M64.3,140c-0.2,0-1.9,0-1.9,0l0.1-0.6c0.2-1.7,0.3-3.7,0.3-5.7l-2.5,0.1l0.1-1.2c0-0.3,0-0.7,0-1.1l0-0.5
				l0.5,0c1.1,0,2.4,0,3.9,0l2.9,0l1.3,0l-0.1,1.1c0,0.3,0,0.5,0,0.7c0,0.2,0,0.3,0,0.4v0.5l-0.5,0c-0.8,0-1.5-0.1-2-0.1
				c0,0.5-0.1,1-0.1,1.4c0,0.8-0.1,1.6-0.1,2.4c0,0.8,0,1.4,0,1.9v0.5C66,140,64.5,140,64.3,140z"/>
			<path d="M68.4,131.5l0,0.6c0,0.3,0,0.6,0,0.8s0,0.4,0,0.5c-0.8,0-1.5-0.1-2.1-0.1h-0.4c-0.1,0.7-0.1,1.3-0.1,1.9
				c0,0.8-0.1,1.7-0.1,2.4c0,0.8,0,1.4,0,1.9c-0.6,0-1.1,0-1.2,0c-0.2,0-0.6,0-1.3,0c0.2-1.9,0.3-4,0.3-6.3l-2.5,0.1l0-0.7
				c0-0.3,0-0.7,0-1.1c1.1,0,2.4,0,3.9,0l1.4,0h1.4L68.4,131.5 M69.4,130.5l-1.1,0l-0.8,0l-1.4,0l-1.5,0c-1.5,0-2.8,0-3.9,0l-1,0
				l0,1c0,0.4,0,0.8,0,1.1l0,0.7l0,1.1l1.1,0l1.4,0c-0.1,1.8-0.2,3.6-0.3,5.1l-0.1,1.1l1.1,0c0.7,0,1.2,0,1.3,0c0.2,0,0.6,0,1.2,0
				l1,0v-1c0-0.5,0-1.1,0-1.9c0-0.8,0.1-1.6,0.1-2.4c0-0.3,0-0.6,0.1-1c0.4,0,0.9,0,1.5,0.1l1.1,0.1v-1.1c0-0.1,0-0.2,0-0.4
				c0-0.2,0-0.4,0-0.7l0-0.6L69.4,130.5L69.4,130.5z"/>
		</g>
		<g>
			<path class="st0" d="M72.1,140.1c-0.5,0-0.9,0-1.4-0.1c-0.4-0.1-0.8-0.2-1.2-0.4c-0.3-0.2-0.6-0.4-0.9-0.7
				c-0.2-0.3-0.4-0.6-0.5-1c-0.1-0.4-0.2-0.8-0.2-1.2c0-0.6,0.1-1.1,0.3-1.7c0.2-0.5,0.5-1,0.9-1.3c0.4-0.3,0.8-0.5,1.3-0.7
				c0.5-0.1,0.9-0.2,1.4-0.2c0.5,0,1,0.1,1.4,0.2c0.5,0.1,0.9,0.3,1.2,0.7c0.3,0.3,0.6,0.7,0.7,1.1c0.1,0.4,0.2,0.8,0.2,1.2
				c0,0.3,0,0.5-0.1,0.8l-0.1,0.4l-0.3,0l-0.1,0.6c-0.1,0.2-0.1,0.8-0.3,1.7l-0.1,0.3l-0.3,0.1c-0.5,0.1-0.9,0.2-1.2,0.2
				C72.8,140.1,72.5,140.1,72.1,140.1z M71.4,137.2c0,0.1,0.1,0.1,0.2,0.2c0.2,0.1,0.5,0.2,0.8,0.2c0.2,0,0.5,0,0.8-0.1
				c0.3-0.1,0.7-0.2,1.2-0.3l0.1,0L71.4,137.2z M72.3,135.3C72.3,135.3,72.2,135.3,72.3,135.3c-0.1-0.1-0.2-0.1-0.3-0.1
				c-0.1,0-0.1,0-0.2,0c-0.1,0-0.1,0-0.1,0.1c0,0,0,0,0,0H72.3z"/>
			<path d="M72,133.3c0.4,0,0.9,0.1,1.3,0.2s0.7,0.3,1,0.5s0.5,0.5,0.6,0.9s0.2,0.7,0.2,1c0,0.2,0,0.5-0.1,0.7l-4.1,0
				c0,0.1,0,0.1,0,0.2c0,0.4,0.2,0.7,0.5,0.9c0.3,0.2,0.7,0.3,1.1,0.3c0.3,0,0.6,0,0.9-0.1s0.7-0.2,1.2-0.3
				c-0.1,0.2-0.1,0.8-0.3,1.7c-0.5,0.1-0.8,0.1-1.1,0.2s-0.6,0-0.9,0c-0.5,0-0.9,0-1.3-0.1s-0.7-0.2-1-0.3s-0.5-0.4-0.7-0.6
				c-0.2-0.2-0.3-0.5-0.4-0.9c-0.1-0.3-0.1-0.7-0.1-1c0-0.5,0.1-1,0.3-1.5c0.2-0.5,0.5-0.9,0.8-1.1c0.3-0.3,0.7-0.5,1.1-0.6
				S71.5,133.3,72,133.3 M70.9,135.8h1.9c0-0.1,0-0.1,0-0.2c0-0.2,0-0.4-0.1-0.5s-0.2-0.2-0.3-0.3s-0.3-0.1-0.5-0.1
				c-0.1,0-0.2,0-0.3,0.1s-0.2,0.1-0.3,0.2s-0.2,0.2-0.2,0.2s-0.1,0.2-0.1,0.3S70.9,135.7,70.9,135.8 M72,132.3
				c-0.5,0-1,0.1-1.5,0.2c-0.6,0.2-1,0.4-1.5,0.8c-0.4,0.4-0.8,0.9-1,1.5c-0.2,0.6-0.4,1.2-0.4,1.9c0,0.4,0.1,0.9,0.2,1.3
				c0.1,0.5,0.3,0.9,0.6,1.2c0.3,0.3,0.6,0.6,1,0.9c0.4,0.2,0.8,0.4,1.3,0.5c0.4,0.1,0.9,0.1,1.4,0.1c0.3,0,0.7,0,1,0
				c0.3,0,0.8-0.1,1.2-0.2l0.7-0.1l0.1-0.7c0.2-1.1,0.3-1.5,0.3-1.6l0-0.2l0.3,0l0.2-0.8c0.1-0.3,0.1-0.6,0.1-0.9
				c0-0.5-0.1-1-0.2-1.4c-0.2-0.5-0.5-0.9-0.9-1.3c-0.4-0.4-0.9-0.6-1.5-0.8C73,132.4,72.5,132.3,72,132.3L72,132.3z"/>
		</g>
		<g>
			<path class="st0" d="M76.1,137.4l0.8-1.1l-2.2-3.3l0.9,0c0.6,0,1.1,0,1.5,0c0.5,0,0.9,0,1.3,0l0.3,0l0.5,1.2
				c0.2-0.3,0.4-0.6,0.6-0.9L80,133l0.3,0c0.3,0,0.8,0,1.2,0c0.4,0,0.9,0,1.3,0l1,0l-1.6,2.1c-0.2,0.2-0.5,0.7-1,1.3
				c0.4,0.6,1,1.6,1.8,2.9l0.5,0.8l-0.9,0c-0.4,0-0.9,0-1.3,0c-0.5,0-1,0-1.4,0l-0.3,0l-0.1-0.3c-0.2-0.5-0.4-0.8-0.5-1.1l-0.9,1.4
				l-0.3,0c-0.4,0-0.8,0-1.2,0c-0.5,0-0.9,0-1.4,0l-1,0L76.1,137.4z"/>
			<path d="M82.8,133.5l-0.9,1.2c-0.2,0.2-0.6,0.8-1.2,1.6c0.4,0.6,1,1.7,2,3.2c-0.4,0-0.9,0-1.3,0c-0.5,0-1,0-1.4,0
				c-0.3-0.5-0.4-1-0.6-1.2s-0.2-0.5-0.3-0.7l-0.2,0.3c-0.1,0.1-0.1,0.2-0.3,0.4l-0.7,1.2c-0.4,0-0.8,0-1.2,0c-0.5,0-0.9,0-1.4,0
				l1.3-1.8l1-1.4l-1.8-2.8c0.6,0,1.1,0,1.5,0c0.5,0,0.9,0,1.3,0l0.6,1.3c0,0.1,0.1,0.2,0.2,0.4c0.3-0.5,0.7-1.1,1.1-1.7
				c0.3,0,0.8,0,1.2,0C82,133.5,82.4,133.5,82.8,133.5 M84.8,132.4l-2.1,0c-0.4,0-0.8,0-1.3,0c-0.5,0-0.9,0-1.2,0l-0.6,0l-0.3,0.5
				c0,0.1-0.1,0.1-0.1,0.2l0,0l-0.3-0.6l-0.7,0c-0.3,0-0.7,0-1.2,0c-0.4,0-0.9,0-1.5,0l-1.9,0l1,1.6l1.5,2.3l-0.6,0.8l-1.3,1.8
				l-1.2,1.6l2,0c0.5,0,0.9,0,1.4,0c0.4,0,0.8,0,1.2,0l0.6,0l0.3-0.5l0.2-0.4c0,0.1,0.1,0.2,0.1,0.3l0.3,0.6l0.7,0
				c0.4,0,0.9,0,1.4,0c0.4,0,0.9,0,1.3,0l1.9,0l-1-1.6c-0.7-1.1-1.2-1.9-1.6-2.6c0.4-0.5,0.6-0.9,0.8-1l0.9-1.2L84.8,132.4
				L84.8,132.4z"/>
		</g>
		<g>
			<path class="st0" d="M85.9,140.1c-0.4,0-0.7,0-1-0.1c-0.3-0.1-0.6-0.2-0.9-0.4c-0.2-0.2-0.4-0.5-0.5-0.7
				c-0.1-0.2-0.1-0.5-0.1-0.8l0-0.2c0-0.1,0.1-2.2,0.1-2.2h-0.9l0-0.5c0-0.3,0-0.6,0.1-1l0-1h1c0-0.2,0.1-1.1,0.1-1.1l1.4-0.3
				c0.2,0,0.6-0.1,1.2-0.3l0.7-0.2l0,0.7c0,0.4,0,0.7,0,1.1h1.3l0,0.5c0,0.8,0,1.3,0,1.6v0.5h-1.4l0,1c0,0.2,0,0.3,0,0.4
				c0,0.2,0,0.3,0,0.3c0,0,0,0,0,0c0,0,0,0,0.1,0c0.1,0,0.1,0,0.2,0c0.1,0,0.2-0.1,0.5-0.1l0.8-0.2l-0.2,0.8
				c-0.1,0.3-0.1,0.6-0.2,0.9l-0.2,1.1l-0.3,0.1c-0.4,0.1-0.7,0.1-1,0.2C86.4,140.1,86.2,140.1,85.9,140.1z"/>
			<path d="M86.5,131.9c0,0.5,0,1.1-0.1,1.7h1.3c0,0.8,0,1.3,0,1.6h-1.3l-0.1,1.5c0,0.2,0,0.4,0,0.4c0,0.2,0,0.3,0.1,0.5
				s0.1,0.2,0.2,0.3s0.2,0.1,0.3,0.1c0.1,0,0.2,0,0.3,0c0.1,0,0.3-0.1,0.5-0.1c-0.1,0.3-0.1,0.6-0.2,1l-0.1,0.7
				c-0.4,0.1-0.7,0.1-0.9,0.2s-0.4,0-0.6,0c-0.3,0-0.6,0-0.9-0.1s-0.5-0.2-0.6-0.3s-0.3-0.3-0.4-0.5s-0.1-0.4-0.1-0.6
				c0,0,0-0.1,0-0.2s0-0.3,0-0.7l0.1-2h-0.9c0-0.3,0-0.6,0.1-1.1l0-0.5h1c0-0.2,0.1-0.6,0.1-1.2l1-0.2
				C85.6,132.2,85.9,132.1,86.5,131.9 M87.6,130.6l-1.3,0.3c-0.6,0.1-0.9,0.2-1.1,0.3l-1,0.2l-0.8,0.2l0,0.8c0,0.1,0,0.2,0,0.2h0h-1
				l0,1l0,0.5c0,0.4,0,0.8-0.1,1l-0.1,1.1h0.9l-0.1,1c0,0.4,0,0.6,0,0.7c0,0.1,0,0.2,0,0.2c0,0.3,0,0.6,0.1,0.9
				c0.1,0.4,0.3,0.7,0.6,1c0.3,0.3,0.7,0.4,1.1,0.5c0.3,0.1,0.7,0.1,1.1,0.1c0.2,0,0.5,0,0.7,0c0.3,0,0.6-0.1,1-0.2l0.6-0.1l0.1-0.7
				l0.1-0.7c0.1-0.3,0.1-0.6,0.2-0.9l0.3-1.6l-1.6,0.4c-0.1,0-0.1,0-0.2,0c0,0,0-0.1,0-0.1l0-0.5h0.4h1v-1c0-0.3,0-0.8,0-1.6l0-1h-1
				h-0.3c0-0.2,0-0.4,0-0.6L87.6,130.6L87.6,130.6z"/>
		</g>
		<g>
			<path class="st0" d="M93.5,140.1c-0.5,0-1-0.1-1.4-0.2c-0.4-0.2-0.8-0.5-1-0.9c-0.2-0.4-0.3-0.8-0.3-1.2c0-0.2,0-0.5,0.1-0.7
				c0.1-0.2,0.2-0.4,0.4-0.7c0.2-0.2,0.4-0.4,0.6-0.5c0.2-0.1,0.5-0.3,0.9-0.4c0.3-0.1,0.8-0.2,1.3-0.3c0.2,0,0.4-0.1,0.5-0.1
				c0,0,0,0,0,0c-0.6,0-1.4,0.2-2.3,0.5l-0.8,0.3l0.2-0.9c0.1-0.4,0.1-0.6,0.1-0.8l0.1-1l0.3-0.1c1.2-0.3,2.2-0.4,3-0.4
				c0.5,0,1,0.1,1.4,0.2c0.5,0.1,0.9,0.3,1.1,0.6c0.3,0.3,0.5,0.8,0.5,1.3c0,0.2,0,0.7-0.1,1.5c-0.1,0.8-0.1,1.8-0.1,3l0,0.5l-0.5,0
				c-0.4,0-0.8,0-1.1,0c-0.4,0-0.8,0-1.2,0l-0.4,0l0,0l-0.3,0.1C94.1,140.1,93.8,140.1,93.5,140.1z M94.1,137.8c-0.1,0,0,0,0.1,0
				c0.1,0,0.1,0,0.2,0c0.1,0,0.2,0,0.3-0.1l0.1,0c0-0.1,0-0.1,0-0.2c0,0-0.1,0-0.1,0c-0.2,0.1-0.4,0.1-0.5,0.1
				C94.2,137.8,94.1,137.8,94.1,137.8C94.1,137.8,94.1,137.8,94.1,137.8z"/>
			<path d="M95.2,133.3c0.5,0,0.9,0.1,1.3,0.2c0.4,0.1,0.7,0.3,0.9,0.5s0.3,0.6,0.3,1c0,0.2,0,0.7-0.1,1.5s-0.1,1.8-0.1,3
				c-0.4,0-0.8,0-1.1,0c-0.4,0-0.8,0-1.2,0c0.1-0.4,0.1-1.3,0.2-2.7c-0.1,0.1-0.3,0.1-0.3,0.2c-0.1,0-0.2,0.1-0.4,0.1
				s-0.4,0.1-0.5,0.2c-0.1,0-0.2,0.1-0.3,0.2c-0.1,0.1-0.2,0.1-0.2,0.2c0,0.1-0.1,0.1-0.1,0.2c0,0.1,0.1,0.2,0.2,0.3
				s0.3,0.1,0.5,0.1c0.1,0,0.2,0,0.3,0s0.2,0,0.4-0.1c-0.1,0.3-0.2,0.7-0.4,1.3c-0.3,0.1-0.7,0.1-1,0.1c-0.5,0-0.9-0.1-1.2-0.2
				c-0.3-0.1-0.6-0.4-0.7-0.7s-0.3-0.6-0.3-0.9c0-0.2,0-0.4,0.1-0.5c0.1-0.2,0.2-0.3,0.3-0.5c0.1-0.2,0.3-0.3,0.5-0.4
				c0.2-0.1,0.4-0.2,0.8-0.3c0.3-0.1,0.7-0.2,1.2-0.3c0.2,0,0.4-0.1,0.6-0.1s0.3-0.1,0.4-0.1s0.1-0.1,0.2-0.1s0.1-0.1,0.1-0.1
				s0-0.1,0-0.2c0-0.1-0.1-0.3-0.2-0.3s-0.3-0.1-0.6-0.1c-0.7,0-1.5,0.2-2.5,0.6c0.1-0.4,0.1-0.7,0.1-0.8s0.1-0.4,0.1-0.7
				C93.5,133.5,94.4,133.3,95.2,133.3 M95.2,132.3c-0.9,0-1.9,0.1-3.1,0.4l-0.7,0.1l-0.1,0.7l-0.1,0.7c0,0.1-0.1,0.4-0.1,0.7
				l-0.2,1.2c0,0,0,0,0,0c-0.2,0.3-0.4,0.5-0.5,0.8c-0.1,0.3-0.2,0.6-0.2,0.9c0,0.5,0.1,0.9,0.4,1.4c0.3,0.5,0.7,0.9,1.2,1.1
				c0.4,0.2,1,0.3,1.6,0.3c0.4,0,0.7,0,1.1-0.1l0.3-0.1l0.3,0c0.4,0,0.8,0,1.2,0c0.4,0,0.7,0,1.1,0l1,0l0-1c0-1.2,0.1-2.2,0.1-3
				c0.1-1.1,0.1-1.4,0.1-1.6c0-0.7-0.2-1.3-0.6-1.7c-0.3-0.4-0.8-0.6-1.4-0.8C96.3,132.4,95.8,132.3,95.2,132.3L95.2,132.3z"/>
		</g>
	</g>
</g>
<g id="Taxi">
	<g>
		<g>
			<path class="st0" d="M81.4,184.2c-0.6,0-1-0.2-1.2-0.5c-0.3-0.5,0.1-1.2,0.2-1.4c6.5-10.8,18.5-29,36.7-55.6
				c-5.6,0.9-11.9,1.9-18.7,3.1c-0.4,0.1-0.7,0.1-1,0.1c0,0,0,0,0,0c-0.2,0-0.9,0-1.1-0.5c-0.3-0.5,0-1,0.1-1.2
				c0.4-0.9,0.7-1.8,1.1-2.5c0.7-1.7,1.2-3,2-3.9c1.8-2.3,3.4-3.4,7.7-4.1c3.1-0.5,9.6-1.3,17.5-2c0.6-0.9,1.1-1.7,1.5-2.3l0.3-0.4
				c0.6-0.9,1.1-1.5,2-1.5c0.5,0,1.1,0.2,1.8,0.6c1.3,0.7,2.9,1.7,4.6,2.8c5.1-0.3,8.9-0.5,11.8-0.5c2.8,0,4.6,1,6.4,2.2
				c2.5,1.7,3.4,2.3,3.4,3.2c0,0.3-0.2,1.1-1.6,1.3c-3,0.4-9.8,1.4-19.1,2.8c-6.2,9.9-25.8,38.9-38.7,55.7c-2.4,3.1-4.2,3.6-6.6,3.6
				c-2.7,0.1-4.6,0.4-6.1,0.7C83.2,184,82.3,184.2,81.4,184.2z"/>
			<path d="M128.3,111.9c0.4,0,0.9,0.2,1.6,0.6c1.2,0.7,3,1.7,4.7,2.9c4.6-0.3,8.8-0.5,12-0.5c2.6,0,4.2,0.9,6.1,2.1
				c2.3,1.5,3.2,2.1,3.2,2.8c0,0.4-0.4,0.7-1.1,0.8c-3.5,0.5-10.7,1.5-19.3,2.9c-6.3,10.1-25.9,39.1-38.7,55.9
				c-2.3,3-3.9,3.4-6.2,3.4c-4.8,0.2-7.1,1.1-9,1.1c-0.6,0-1.1-0.2-0.6-1.1c7.7-12.7,21.8-33.9,37.3-56.5
				c-6.8,1.1-13.7,2.2-19.8,3.3c-0.4,0.1-0.7,0.1-0.9,0.1c-0.8,0-0.9-0.4-0.6-1c1.2-2.8,1.9-5.1,3-6.4c1.6-2,3.1-3.3,7.4-3.9
				c3.3-0.6,10.3-1.3,17.7-2c0.9-1.2,1.4-2.2,1.9-3C127.4,112.3,127.8,111.9,128.3,111.9 M128.3,110.9c-1.2,0-1.8,0.9-2.4,1.7
				l-0.3,0.4c-0.4,0.6-0.8,1.3-1.4,2.1c-7.8,0.7-14.2,1.4-17.3,2c-4.4,0.7-6.1,2-8,4.3c-0.8,1-1.4,2.4-2,4.1
				c-0.3,0.8-0.7,1.6-1.1,2.6c-0.3,0.6-0.3,1.2,0,1.6c0.3,0.5,0.8,0.7,1.6,0.7c0.3,0,0.7,0,1.1-0.1c6.3-1.1,12.2-2.1,17.5-2.9
				c-17.8,26.1-29.6,44-36,54.7c-0.4,0.7-0.5,1.4-0.2,1.9c0.2,0.4,0.6,0.8,1.6,0.8c0.9,0,1.8-0.2,2.9-0.4c1.5-0.3,3.4-0.6,6.1-0.7
				c0,0,0,0,0,0c2.6,0,4.5-0.6,7-3.8c12.8-16.7,32.3-45.5,38.6-55.6c9.1-1.4,15.8-2.4,18.9-2.8c1.9-0.2,2-1.4,2-1.8
				c0-1.2-1-1.9-3.6-3.6c-1.9-1.2-3.7-2.3-6.7-2.3c-2.9,0-6.7,0.2-11.7,0.5c-1.6-1.1-3.3-2.1-4.5-2.7
				C129.6,111.1,129,110.9,128.3,110.9L128.3,110.9z"/>
		</g>
		<g>
			<path class="st0" d="M151.7,180.8c-2.4,0-4.2-0.7-5.4-2.2c-1.3-1.6-1.8-4-1.4-7.1c-4.4,5.6-8.4,8.6-11.6,8.6
				c-3.7,0-7.8-2.9-10.4-7.4c-2.6-4.4-1.4-9.7,3.5-16.1c6.3-8.3,15.9-13.2,21.5-13.2c3.2,0,5.5,2.8,6.9,4.8c0.5-0.5,1.1-0.8,2-0.8
				c1.1,0,3,0.6,5.7,1.9c2.8,1.4,3.4,2.8,3.4,3.7c0,1.4-0.8,3.3-3.9,9.6c-1.5,3.2-3.3,7.1-3.8,9.8c4.1-1.2,8.2-5,14.1-12.7l0.3-0.4
				c0.5-0.6,0.8-1,1.3-1c0.3,0,0.5,0.2,0.6,0.3l0.3,0.3c0.9,0.9,0.7,1.7,0.3,2.4l-0.3,0.5C167.7,173.5,158.8,180.8,151.7,180.8z
				 M152,152.7c-3.4,1.1-6.9,3.4-10.1,6.6c-4.4,4.4-7,9.3-6.8,12.7C140.6,169.8,145.8,163.7,152,152.7z"/>
			<path d="M147.8,143.9c2.9,0,5.3,2.6,6.8,5.2c0.6-0.8,1.1-1.1,2.1-1.1c0.9,0,2.6,0.5,5.5,1.8c2.2,1.1,3.2,2.2,3.2,3.3
				c0,1.2-0.8,3.2-3.8,9.4c-1.9,4-3.6,8-3.9,10.7c4.2-1,8.4-4.3,15.1-13.1l0.3-0.4c0.5-0.6,0.7-0.8,0.9-0.8c0.1,0,0.2,0.1,0.3,0.1
				l0.3,0.3c0.7,0.7,0.6,1.1,0.2,1.8l-0.3,0.5c-6.4,10.6-15.1,18.8-22.7,18.8c-4.4,0-7.7-2.6-6-10.7c-5.2,7.2-9.4,10-12.4,10
				c-3.8,0-7.7-3.2-10-7.2c-2.1-3.6-1.9-8.5,3.4-15.5C132.9,148.8,142.4,143.9,147.8,143.9 M153,151.8c-4.1,1.1-8.2,3.8-11.5,7.1
				c-4.5,4.5-7.5,10-6.9,13.8C140.3,170.7,145.9,164.9,153,151.8 M147.8,142.9c-5.7,0-15.5,5-21.9,13.4c-5,6.6-6.2,12-3.5,16.6
				c2.7,4.7,6.9,7.7,10.8,7.7c3.2,0,6.9-2.6,11-7.6c-0.1,2.5,0.5,4.5,1.6,5.9c1.3,1.6,3.2,2.4,5.8,2.4c7.4,0,16.4-7.4,23.5-19.2
				l0.3-0.5c0.5-0.8,0.8-1.9-0.3-3l-0.3-0.3c-0.3-0.3-0.6-0.4-1-0.4c-0.7,0-1.2,0.6-1.7,1.2l-0.3,0.4c-5.4,7.1-9.3,10.8-13,12.3
				c0.7-2.6,2.2-6,3.5-8.8c3.2-6.4,3.9-8.3,3.9-9.8c0-1.1-0.6-2.7-3.7-4.2c-2.7-1.3-4.7-1.9-5.9-1.9c-0.8,0-1.4,0.2-1.9,0.6
				C153.4,145.4,151,142.9,147.8,142.9L147.8,142.9z M135.6,171.2c0.2-3.3,2.8-7.7,6.6-11.6c2.7-2.7,5.7-4.8,8.6-6
				C145.3,163.4,140.5,168.9,135.6,171.2L135.6,171.2z"/>
		</g>
		<g>
			<path class="st0" d="M160.8,193.3c-0.8,0-1.8-1.1-1.8-3c0-1.7,0.7-3.2,4.8-8.3c2.9-3.5,5.9-6.8,9.2-10.2
				c-1.6-2.8-2.5-6.2-2.5-9.6c0-4.7,2-8.3,6.4-11.7c4.3-3.3,6.2-4.8,7.5-4.8c0.8,0,1.3,0.5,1.3,1.4c0,0.4-0.1,0.9-0.3,1.6
				c-0.4,1.6-1.2,4.4-1.2,8c0,1.4,0.1,2.8,0.3,4.4c6.6-6.1,12.8-12.1,17.2-18.9c0.4-0.6,0.7-1,1.3-1c1.4,0,1.6,2.8,1.6,4.4
				c0,2-0.4,3.8-2.5,6.6c-4.6,6.1-8.7,9.6-13.9,14l-1.6,1.4c1.3,2.4,3.1,3.8,5.1,3.8c2.4,0,5.6-1.4,13.3-11.7l0.3-0.4
				c0.5-0.6,0.8-1,1.3-1c0.3,0,0.5,0.2,0.6,0.3l0.3,0.3c0.9,0.9,0.7,1.7,0.3,2.4l-0.3,0.5c-7.3,12.2-13.7,17.7-20.9,17.7
				c-3.7,0-6.9-1.1-9.5-3.3c-2.9,2.8-5.8,5.9-8.9,9.3c-2.3,2.5-3.7,4.4-4.6,5.6C162.1,192.6,161.6,193.3,160.8,193.3z"/>
			<path d="M202.9,141.7c0.7,0,1.1,1.7,1.1,3.9c0,1.7-0.3,3.4-2.4,6.3c-5.1,6.8-9.7,10.3-15.8,15.5c1.3,2.7,3.3,4.4,5.7,4.4
				c2.8,0,6.2-1.9,13.7-11.9l0.3-0.4c0.5-0.6,0.7-0.8,0.9-0.8c0.1,0,0.2,0.1,0.3,0.1l0.3,0.3c0.7,0.7,0.6,1.1,0.2,1.8l-0.3,0.5
				c-7.5,12.5-13.8,17.4-20.5,17.4c-3.9,0-7.2-1.3-9.6-3.4c-2.8,2.7-5.8,5.8-9.3,9.7c-4.9,5.5-5.8,7.7-6.7,7.7
				c-0.4,0-1.3-0.8-1.3-2.5c0-1.5,0.7-3,4.7-8c3.1-3.7,6.2-7.2,9.5-10.4c-1.8-3-2.7-6.4-2.7-9.7c0-4.1,1.5-7.7,6.2-11.3
				c4.1-3.2,6.1-4.7,7.2-4.7c0.7,0,0.8,0.4,0.8,0.9c0,1-1.5,4.4-1.5,9.7c0,1.8,0.2,3.6,0.5,5.4c7-6.4,13.4-12.5,18-19.6
				C202.5,141.9,202.7,141.7,202.9,141.7 M202.9,140.7c-0.9,0-1.4,0.7-1.7,1.2c-4.2,6.5-10.1,12.3-16.4,18.1
				c-0.1-1.2-0.2-2.3-0.2-3.3c0-3.6,0.7-6.3,1.2-7.9c0.2-0.8,0.4-1.3,0.4-1.8c0-1.7-1.4-1.9-1.8-1.9c-1.4,0-3.3,1.4-7.8,4.9
				c-4.5,3.4-6.6,7.2-6.6,12.1c0,3.3,0.9,6.7,2.4,9.5c-3.2,3.3-6.2,6.5-9,10c-4.2,5.3-4.9,6.8-4.9,8.7c0,2.3,1.4,3.5,2.3,3.5
				c1,0,1.5-0.7,2.8-2.4c0.9-1.2,2.4-3,4.6-5.5c3-3.3,5.8-6.3,8.6-9c2.6,2,5.9,3.1,9.5,3.1c7.4,0,14-5.5,21.3-17.9l0.3-0.5
				c0.5-0.8,0.8-1.9-0.3-3l-0.3-0.3c-0.3-0.3-0.6-0.4-1-0.4c-0.7,0-1.2,0.6-1.7,1.2l-0.3,0.4c-7.6,10.1-10.7,11.5-12.9,11.5
				c-2.2,0-3.6-1.8-4.5-3.2c0.4-0.4,0.9-0.7,1.3-1.1c5.3-4.4,9.4-7.9,14-14.1c2.2-2.9,2.6-4.8,2.6-6.9
				C205,142.4,204.3,140.7,202.9,140.7L202.9,140.7z"/>
		</g>
		<g>
			<path class="st0" d="M209.4,180.9c-3,0-4.5-1.1-7.1-3.3c-4.8-4.4-4.4-7.1,2.6-17.9c4-6,8.8-12.7,11-15.2c0.5-0.6,1-0.8,1.9-0.8
				c2.1,0,8.9,0.3,8.9,4.6c0,1.9-1.7,5.1-5.4,10.2c-4.8,6.8-7.7,11.4-9.1,14.7c3.9-0.6,8.1-2.7,11.6-6c0.3-0.2,0.5-0.3,0.7-0.3
				c0.3,0,0.6,0.2,0.7,0.4c0.1,0.4,0.3,1.6,0.3,2c0,0.4-0.1,1.2-1,2.1C221.9,175,215.6,180.9,209.4,180.9z M228.1,138.3
				c-1.4,0-3.5-0.6-4.3-1.1c-0.6-0.5-0.7-1.2-0.2-2.3c1.3-2.8,3.4-5.9,5.6-8.4c1.4-1.6,2.3-2.2,3.1-2.2c0.1,0,0.3,0,0.4,0.1
				c2,0.6,4.5,1.9,5.7,2.9c0.6,0.5,1.2,1,1.2,1.7c0,0.4-0.2,0.8-0.5,1.2c-1.5,1.5-3.1,3-4.4,4.2c-0.9,0.8-1.6,1.5-2.1,2
				C231.1,138.1,229.5,138.3,228.1,138.3z"/>
			<path d="M232.4,124.7c0.1,0,0.2,0,0.3,0c2,0.6,4.4,1.8,5.5,2.8c1,0.8,1.4,1.3,0.7,2.1c-2.5,2.5-5.3,5.1-6.4,6.2
				c-1.5,1.7-2.9,1.9-4.3,1.9c-1.3,0-3.3-0.6-4-1.1c-0.4-0.3-0.4-0.9,0-1.7c1.4-3.1,3.6-6.1,5.5-8.2
				C230.9,125.3,231.7,124.7,232.4,124.7 M217.7,144.2c2.4,0,8.4,0.5,8.4,4.1c0,1.9-1.9,5.3-5.3,9.9c-5.1,7.2-8.1,12.2-9.5,15.6
				c4.2-0.4,8.8-2.6,12.7-6.2c0.1-0.1,0.3-0.1,0.4-0.1s0.2,0,0.3,0.1c0.1,0.3,0.3,1.4,0.3,1.8c0,0.4-0.1,1-0.9,1.8
				c-2.9,3.6-9,9.1-14.8,9.1c-2.8,0-4.1-1-6.8-3.2c-4.3-3.9-4.5-6.1,2.7-17.2c4-6.1,8.8-12.7,10.9-15.1
				C216.5,144.4,216.9,144.2,217.7,144.2 M232.4,123.7L232.4,123.7c-1.2,0-2.3,1-3.5,2.4c-2.2,2.5-4.4,5.6-5.7,8.5
				c-0.8,1.7-0.2,2.5,0.3,2.9c0.9,0.7,3.1,1.3,4.6,1.3c1.5,0,3.2-0.2,5-2.2c0.5-0.5,1.2-1.1,2-2c1.3-1.2,2.9-2.7,4.4-4.2
				c0.5-0.5,0.7-1,0.7-1.5c0-0.9-0.7-1.5-1.4-2c-1.2-1.1-3.8-2.4-5.8-3C232.8,123.8,232.6,123.7,232.4,123.7L232.4,123.7z
				 M217.7,143.2c-1,0-1.7,0.3-2.3,1c-2.2,2.5-7,9.2-11,15.2c-7.1,11-7.5,14-2.5,18.5l0,0l0,0c2.7,2.2,4.3,3.4,7.4,3.4
				c6.4,0,12.8-5.9,15.6-9.4c0.7-0.8,1.1-1.6,1.1-2.5c0-0.5-0.2-1.7-0.3-2.1l0-0.1l0-0.1c-0.2-0.4-0.7-0.7-1.2-0.7
				c-0.3,0-0.7,0.1-1,0.3l-0.1,0l-0.1,0.1c-3.2,2.9-6.9,5-10.4,5.7c1.5-3.2,4.3-7.6,8.6-13.8c3.8-5.3,5.4-8.5,5.4-10.5
				C227.1,147.1,226.4,143.2,217.7,143.2L217.7,143.2z"/>
		</g>
	</g>
</g>
</svg>
