<svg id="Layer_1" data-name="Layer 1" xmlns="http://www.w3.org/2000/svg" viewBox="0 0 30 30"><defs><style>.cls-1{fill:#231f20;}.cls-2{fill:#fff;}</style></defs><title>volume_up</title><rect class="cls-1" width="30" height="30" rx="15"/><path class="cls-2" d="M16.37,13.25a.53.53,0,0,0-.74,0,.51.51,0,0,0,0,.74,1.44,1.44,0,0,1,0,2,.52.52,0,0,0,.37.89.55.55,0,0,0,.37-.15A2.49,2.49,0,0,0,16.37,13.25Z"/><path class="cls-2" d="M17.9,11.72a.52.52,0,0,0-.74.74,3.6,3.6,0,0,1,0,5.08.52.52,0,0,0,.37.89.53.53,0,0,0,.37-.15A4.64,4.64,0,0,0,17.9,11.72Z"/><path class="cls-2" d="M19.61,10a.51.51,0,0,0-.74,0,.53.53,0,0,0,0,.74,6,6,0,0,1,0,8.5.52.52,0,0,0,.74.74,7,7,0,0,0,0-10Z"/><path class="cls-2" d="M14.25,9.69a.54.54,0,0,0-.56.08l-3.32,2.85H8.85a.53.53,0,0,0-.53.53v3.7a.53.53,0,0,0,.53.53h1.52l3.32,2.85a.55.55,0,0,0,.34.13.59.59,0,0,0,.22-.05.53.53,0,0,0,.3-.48V10.17A.53.53,0,0,0,14.25,9.69Zm-4.88,4H10v2.66H9.37Zm4.14,5-2.43-2.09V13.39l2.43-2.09Z"/></svg>