<svg id="Layer_1" data-name="Layer 1" xmlns="http://www.w3.org/2000/svg" viewBox="0 0 30 30"><defs><style>.cls-1{fill:#231f20;}.cls-2{fill:#fff;}</style></defs><title>volume_down</title><rect class="cls-1" width="30" height="30" rx="15"/><path class="cls-2" d="M19.07,13.25a.53.53,0,0,0-.74,0,.51.51,0,0,0,0,.74,1.44,1.44,0,0,1,0,2,.52.52,0,0,0,.37.89.53.53,0,0,0,.37-.15A2.49,2.49,0,0,0,19.07,13.25Z"/><path class="cls-2" d="M17,9.69a.54.54,0,0,0-.56.08l-3.32,2.85H11.55a.52.52,0,0,0-.52.53v3.7a.52.52,0,0,0,.52.53h1.52l3.32,2.85a.55.55,0,0,0,.34.13.54.54,0,0,0,.22-.05.52.52,0,0,0,.3-.48V10.17A.52.52,0,0,0,17,9.69Zm-4.88,4h.67v2.66h-.67Zm4.14,5-2.43-2.09V13.39l2.43-2.09Z"/></svg>