<svg xmlns="http://www.w3.org/2000/svg" viewBox="0 0 66.62 31.04"><defs><style>.b6f7580c-502c-4b08-970e-b2962f2f0ec0{fill:#B8241C;}</style></defs><title>Asset 3</title><g id="be7fe094-cdc7-49a3-897f-5daf10795a35" data-name="Layer 2"><g id="eb6ebff3-7562-44fb-a3d3-85faa4e2f3c6" data-name="Layer 1"><path class="b6f7580c-502c-4b08-970e-b2962f2f0ec0" d="M15.33,10.65a21.65,21.65,0,0,1,4.38-1.57l.19,0c-1,2.75-1.83,5.35-2.52,7.78a30.67,30.67,0,0,0-1.17,7.58l-5,2.41c-.18-2-.48-5-.92-7.27-.07-.3-.13-.59-.2-.87A46.78,46.78,0,0,0,9.44,26L4.5,28.29a50.48,50.48,0,0,0-.74-5.56,22.57,22.57,0,0,0-.81-3q-1.06-3-2.1-5.47A13.18,13.18,0,0,1,5.14,12c.16,0,.36.61.6,1.82q.12.64.27,1.5c.36,2.22.68,4.67.94,7.35.33-2.63.34-6.94.42-9.89a2.19,2.19,0,0,0,.38-.21,11.22,11.22,0,0,1,3.82-2c.19,0,.5,1,.94,2.87.08.38.17.77.25,1.17.31,1.6.57,3.33.77,5.21A69.2,69.2,0,0,1,15.33,10.65Z"/><path class="b6f7580c-502c-4b08-970e-b2962f2f0ec0" d="M30.14,16.64c.11,1.65.17,3.41.33,4.95l-4.32,1.8c-.11-1.5-.13-3.32-.08-5.47-.78.33-1.56.62-2.32,1,0,1.66,0,3.08.09,4.27l-4.25,1.64A86.21,86.21,0,0,1,20.82,9.92a8.2,8.2,0,0,1,3.23-1.37c-.17,2.18-.24,4.78-.28,7.12a17.69,17.69,0,0,1,2.46-1.41,50.1,50.1,0,0,1,.62-5.75,7.24,7.24,0,0,1,3.2-1.46C30,8.7,30,10.62,30,12.81a9.57,9.57,0,0,0,1-.31l-.29,4Z"/><path class="b6f7580c-502c-4b08-970e-b2962f2f0ec0" d="M43,19.11a12,12,0,0,1-4.1,2.2c-.16,0-.38-.66-.63-1.94q-.12-.57-.24-1.32l-1.5.64-.08,0c-.19,0-.34-.16-.43-.61,0,0,0,0,0-.07a25.62,25.62,0,0,1-.75,3.22,21.72,21.72,0,0,1-4.37,1.59q1.34-4.2,2.18-8A37.81,37.81,0,0,0,34,7l3-1.32,2.3-1.19a52,52,0,0,0,.78,5.5,38.26,38.26,0,0,0,1,4c.55-.16,1-.31,1.5-.5l-.35,3.28-.12,0A24.18,24.18,0,0,0,43,19.11Zm-5.41-3.6c-.32-2-.6-4.27-.84-6.7-.1,2.5-.19,5.11-.5,7.45A14.61,14.61,0,0,1,37.61,15.51Z"/><path class="b6f7580c-502c-4b08-970e-b2962f2f0ec0" d="M43.83,9.73a2.19,2.19,0,0,1,.43-1.18l-1.37.61c0-.17-.08-.33-.11-.48a7.9,7.9,0,0,1,.1-3.08,28.18,28.18,0,0,1,6.58-2.74l.3,0a4.59,4.59,0,0,1,4.12,2,4.22,4.22,0,0,1,.54,1.43,7.13,7.13,0,0,1-.62,4.32,7.12,7.12,0,0,1-5.43,3.8c-.29.06-.6.1-.91.14.1,1.34.23,2.57.33,3.87l-4.34,1.69A82.16,82.16,0,0,1,43.83,9.73Zm5.71,1.73a1.94,1.94,0,0,0,1-2,2.51,2.51,0,0,0,0-.27c-.32-1.61-1.47-2-3-1.76a38.42,38.42,0,0,0-.1,5.16A17.88,17.88,0,0,0,49.54,11.46Z"/><path class="b6f7580c-502c-4b08-970e-b2962f2f0ec0" d="M0,31H66.62V18Zm60.3-1.42C58.08,30,56,29.19,55.62,27a4.5,4.5,0,0,1-.07-.85c0-2.59,2.34-4.73,5.15-5.25,2.18-.4,4.3.4,4.69,2.52a4.35,4.35,0,0,1,.06.9C65.34,26.73,63,29.12,60.3,29.62Z"/><path class="b6f7580c-502c-4b08-970e-b2962f2f0ec0" d="M56.68,2.31A23.35,23.35,0,0,1,61.42.8C63.05.46,64.27.2,65.11,0a111.64,111.64,0,0,0-.43,16.31L55.59,18C55.52,13.54,55.82,6.1,56.68,2.31Z"/></g></g></svg>