<?xml version="1.0" encoding="utf-8"?>
<!-- Generator: Adobe Illustrator 23.0.6, SVG Export Plug-In . SVG Version: 6.00 Build 0)  -->
<svg version="1.1" id="Layer_1" xmlns="http://www.w3.org/2000/svg" xmlns:xlink="http://www.w3.org/1999/xlink" x="0px" y="0px"
	 viewBox="0 0 300 300" style="enable-background:new 0 0 300 300;" xml:space="preserve">
<style type="text/css">
	.st0{fill:#B8241C;}
	.st1{fill:#FAE805;}
</style>
<rect x="0" y="-0.5" class="st0" width="300" height="300"/>
<g>
	<path class="st1" d="M96.4,133.9c2.7-1.4,9.1-3.9,13.1-4.7c0.2,0,0.4-0.1,0.6-0.1c-3,8.3-5.5,16.1-7.6,23.3
		c-2.1,7.3-3.2,14.9-3.5,22.7l-14.9,7.2c-0.5-6-1.4-15.1-2.8-21.8c-0.2-0.9-0.4-1.8-0.6-2.6c-1.2,5.5-2,15.8-2.1,22l-14.8,6.8
		c-0.6-6.4-1.3-12-2.2-16.7c-0.7-3.5-1.5-6.6-2.4-9.1c-2.1-5.9-4.2-11.4-6.3-16.4c2.7-2.4,7-4.6,12.9-6.6c0.5,0,1.1,1.8,1.8,5.5
		c0.3,1.3,0.5,2.8,0.8,4.5c1.1,6.6,2,14,2.8,22c1-7.9,1-20.8,1.3-29.7c0.3-0.1,0.7-0.3,1.1-0.6c3.1-2.6,6.4-4.3,11.4-6
		c0.6,0,1.5,2.9,2.8,8.6c0.3,1.1,0.5,2.3,0.7,3.5c1,4.8,1.7,10,2.3,15.6C92.2,153.8,94.1,140.6,96.4,133.9z"/>
	<path class="st1" d="M140.9,151.8c0.3,4.9,0.5,10.2,1,14.9l-13,5.4c-0.3-4.5-0.4-10-0.2-16.4c-2.3,1-4.7,1.9-7,2.9
		c0,5,0.1,9.2,0.3,12.8l-12.8,4.9c-0.3-12.1,1.6-34.5,3.7-44.6c4.5-2.7,5-3,9.7-4.1c-0.5,6.6-0.7,14.4-0.8,21.4
		c2.2-1.5,4.6-2.9,7.4-4.2c0.4-6.9,1-12.6,1.8-17.3c4.4-2.9,4.9-3.2,9.6-4.4c-0.3,5-0.3,10.7-0.1,17.3c1-0.2,2-0.6,3-0.9l-0.9,12.1
		L140.9,151.8z"/>
	<path class="st1" d="M179.5,159.3c-2.6,2.4-6.7,4.6-12.3,6.6c-0.5,0-1.1-2-1.9-5.8c-0.2-1.1-0.5-2.5-0.7-4c-2,0.8-3.5,1.5-4.5,1.9
		c-0.1,0-0.1,0.1-0.2,0.1c-0.6,0.1-1-0.5-1.3-1.8c0-0.1,0-0.1,0-0.2c-0.7,3.9-1.4,7.1-2.2,9.6c-2.7,1.4-9.4,4-13.1,4.8
		c2.7-8.4,4.9-16.4,6.5-23.9c1.7-7.5,2.6-15.4,2.7-23.5l9-4l6.9-3.5c0.6,6,1.3,11.3,2.3,16.5c0.8,4,1.8,7.9,3,11.9
		c1.6-0.5,2.9-0.9,4.5-1.5l-1,9.8l-0.4,0.1C177.6,154.8,178.5,157,179.5,159.3z M163.3,148.5c-1-6.1-1.8-12.8-2.5-20.1
		c-0.3,7.5-0.6,15.3-1.5,22.4C160.4,150,161.8,149.2,163.3,148.5z"/>
	<path class="st1" d="M181.9,131.1c0-1.1,0.5-2.3,1.3-3.5c-1.7,0.8-3.1,1.4-4.1,1.8c-0.1-0.5-0.2-1-0.3-1.4
		c-0.6-3.1-0.3-5.6,0.3-9.2c4.5-2.5,13.4-6.9,19.7-8.2c0.3-0.1,0.6-0.1,0.9-0.2c4.6-0.6,10.4,2.5,12.4,6.1c0.8,1.3,1.3,2.8,1.6,4.3
		c0.9,4.7-0.3,9.8-1.9,13c-2.9,5.8-8,9.7-16.3,11.4c-0.9,0.2-1.8,0.3-2.7,0.4c0.3,4,0.7,7.7,1,11.6l-13,5.1
		C180.3,152.8,181.1,140,181.9,131.1z M199.1,136.3c2.3-1.4,3.3-3.4,3-5.9c0-0.3-0.1-0.5-0.1-0.8c-1-4.8-4.4-6.1-9.1-5.3
		c-0.5,5.1-0.5,10.2-0.3,15.5C194.6,138.9,196.8,137.7,199.1,136.3z"/>
	<path class="st1" d="M50.4,195.1l199.9,0v-39.1L50.4,195.1z M231.3,190.8c-6.7,1.2-12.9-1.3-14.1-7.8c-0.1-0.8-0.2-1.6-0.2-2.5
		c0-7.8,7-14.2,15.5-15.8c6.5-1.2,12.9,1.2,14.1,7.5c0.2,0.8,0.2,1.7,0.2,2.7C246.5,182.1,239.4,189.3,231.3,190.8z"/>
	<path class="st1" d="M220.5,108.9c4.6-2,9.3-3.5,14.2-4.5c4.9-1,8.6-1.8,11.1-2.4c-1.7,12.9-1.9,35.3-1.3,48.9l-27.3,5.2
		C217,142.5,217.9,120.2,220.5,108.9z"/>
</g>
</svg>
